<svg xmlns="http://www.w3.org/2000/svg" width="20" height="21" viewBox="0 0 20 21">
  <path file-rule="evenodd" d="M11.309,11.813a4.21,4.21,0,0,1,1.23,1.387,3.942,3.942,0,0,1,.508,1.777A4.386,4.386,0,0,1,12.7,16.93,5.149,5.149,0,0,1,11.289,18.8a5.834,5.834,0,0,1-2.783,1.23,10.485,10.485,0,0,1-3.545.1A6.933,6.933,0,0,1,1.924,19.01a2.865,2.865,0,0,1-1.3-2.51,3.274,3.274,0,0,1,.947-2.51,5.91,5.91,0,0,1,2.139-1.3,9.032,9.032,0,0,1,2.227-.5q1.055-.088,1.25-0.107a1.639,1.639,0,0,0,.283-0.02,0.14,0.14,0,0,0,.127-0.1A0.226,0.226,0,0,0,7.559,11.8a1.28,1.28,0,0,0-.215-0.264q-0.157-.176-0.332-0.41A1.84,1.84,0,0,1,6.738,10.6,1.428,1.428,0,0,1,6.709,10a1.478,1.478,0,0,1,.322-0.684,6.743,6.743,0,0,1-1.377-.137A5.77,5.77,0,0,1,3.945,8.57,4.386,4.386,0,0,1,2.52,7.3a3.46,3.46,0,0,1-.605-2.109A4.1,4.1,0,0,1,2.5,2.955,5.736,5.736,0,0,1,3.887,1.422,5.683,5.683,0,0,1,5.508.543,3.915,3.915,0,0,1,6.816.289h6.5l-0.234.156a2.166,2.166,0,0,1-.3.205Q12.6,0.758,12.344.914a1.774,1.774,0,0,1-.6.186,4.618,4.618,0,0,1-.654.049,5.5,5.5,0,0,1-.723-0.059,4.686,4.686,0,0,1,.9.82,4.741,4.741,0,0,1,.605,1.006,3.322,3.322,0,0,1,.273,1.4,4.959,4.959,0,0,1-.176,1.4,4.209,4.209,0,0,1-.488,1.084,6.9,6.9,0,0,1-.752.889q-0.42.42-.928,0.85a1.84,1.84,0,0,0-.6.8,0.919,0.919,0,0,0,.107.742,2.987,2.987,0,0,0,.723.781q0.508,0.41,1.27.957h0ZM7.441,8.473a2.009,2.009,0,0,0,2.1-1.2,4.51,4.51,0,0,0,.186-2.627,6.44,6.44,0,0,0-1.172-2.6A2.379,2.379,0,0,0,6.563.914,1.892,1.892,0,0,0,4.639,2.1a4.709,4.709,0,0,0-.283,2.588A6.31,6.31,0,0,0,5.41,7.291,2.413,2.413,0,0,0,7.441,8.473h0ZM7.07,19.059a8.9,8.9,0,0,0,1.8-.166,3.96,3.96,0,0,0,1.348-.518,2.489,2.489,0,0,0,.84-0.869,2.437,2.437,0,0,0,.293-1.221,2.55,2.55,0,0,0-.293-1.24,3.851,3.851,0,0,0-.723-0.947,6.666,6.666,0,0,0-.908-0.762Q8.945,13,8.555,12.711a13.26,13.26,0,0,0-2.412.2,6.5,6.5,0,0,0-1.768.566A2.822,2.822,0,0,0,3.3,14.41a2.333,2.333,0,0,0-.371,1.309A3.369,3.369,0,0,0,3.2,17.086a2.858,2.858,0,0,0,.781,1.055,3.572,3.572,0,0,0,1.3.684,6.159,6.159,0,0,0,1.787.234h0ZM16.934,2.75h2.441V4.039H16.934V6.5H15.664V4.039h-2.5V2.75h2.5V0.309h1.269V2.75h0Z"/>
</svg>
