<svg xmlns="http://www.w3.org/2000/svg" width="20" height="21" viewBox="0 0 20 21">
  <path file-rule="evenodd" d="M2.559,0.25a2.684,2.684,0,0,0-1,.186,2.332,2.332,0,0,0-.8.518,2.4,2.4,0,0,0-.557.811A2.626,2.626,0,0,0,0,2.809V17.691a2.624,2.624,0,0,0,.205,1.045,2.4,2.4,0,0,0,.557.811,2.333,2.333,0,0,0,.8.518,2.685,2.685,0,0,0,1,.186H17.441a2.685,2.685,0,0,0,1-.186,2.336,2.336,0,0,0,.8-0.518,2.4,2.4,0,0,0,.557-0.811A2.624,2.624,0,0,0,20,17.691V2.809a2.626,2.626,0,0,0-.205-1.045A2.4,2.4,0,0,0,19.238.953a2.335,2.335,0,0,0-.8-0.518,2.683,2.683,0,0,0-1-.186H2.559ZM14.57,2.477h2.246a0.892,0.892,0,0,1,.342.068,1.123,1.123,0,0,1,.3.186,0.861,0.861,0,0,1,.186.283,0.942,0.942,0,0,1,.068.361V5.523a0.94,0.94,0,0,1-.068.361,0.858,0.858,0,0,1-.186.283,0.923,0.923,0,0,1-.3.205,0.886,0.886,0,0,1-.342.068H14.57a0.835,0.835,0,0,1-.361-0.078,0.989,0.989,0,0,1-.283-0.2,0.735,0.735,0,0,1-.205-0.283,0.935,0.935,0,0,1-.068-0.361V3.375a0.837,0.837,0,0,1,.078-0.361,0.993,0.993,0,0,1,.2-0.283,0.858,0.858,0,0,1,.283-0.186,0.941,0.941,0,0,1,.361-0.068h0Zm3.184,6.25-0.039,8.438a0.809,0.809,0,0,1-.058.3,0.717,0.717,0,0,1-.156.244,1.306,1.306,0,0,1-.254.166,0.688,0.688,0,0,1-.312.068H3.008A0.687,0.687,0,0,1,2.7,17.877a1.3,1.3,0,0,1-.254-0.166,0.711,0.711,0,0,1-.156-0.244,0.807,0.807,0,0,1-.059-0.3V8.727H4.063q-0.059.2-.107,0.4a2.931,2.931,0,0,0-.068.42Q3.847,9.781,3.828,10t-0.02.449A5.682,5.682,0,0,0,4.3,12.789,6.151,6.151,0,0,0,5.625,14.7a6.4,6.4,0,0,0,1.992,1.289,6.491,6.491,0,0,0,4.844,0,6.091,6.091,0,0,0,3.3-3.213,5.708,5.708,0,0,0,.488-2.334q0-.234-0.02-0.449t-0.039-.449q-0.039-.215-0.088-0.42T16,8.727h1.758ZM10.039,6.3a4.035,4.035,0,0,1,3.7,2.363,3.739,3.739,0,0,1,0,3.037,3.986,3.986,0,0,1-.869,1.24,4.194,4.194,0,0,1-1.279.84,3.914,3.914,0,0,1-1.553.313,4.082,4.082,0,0,1-2.852-1.133,4.016,4.016,0,0,1-.869-1.23,3.739,3.739,0,0,1,0-3.037,3.984,3.984,0,0,1,.869-1.24,4.2,4.2,0,0,1,1.279-.84A3.967,3.967,0,0,1,10.039,6.3h0Z"/>
</svg>
