<svg xmlns="http://www.w3.org/2000/svg" width="12" height="21" viewBox="0 0 12 21">
  <path file-rule="evenodd" d="M5,14.352a0.729,0.729,0,0,0-.068.078,0.191,0.191,0,0,1-.068.059,0.742,0.742,0,0,1-.078.068c-0.026.02-.059,0.043-0.1,0.068l-0.85.85-0.85.85-0.859.859q-0.43.43-.859,0.84-0.078.1-.146,0.2c-0.046.065-.088,0.13-0.127,0.2s-0.052.137-.078,0.215a0.794,0.794,0,0,0-.039.254,0.979,0.979,0,0,0,.029.361,1.223,1.223,0,0,0,.146.342,1.764,1.764,0,0,0,.264.313,1.45,1.45,0,0,0,.342.234,1.459,1.459,0,0,0,.352.107,0.81,0.81,0,0,0,.332-0.01,0.954,0.954,0,0,0,.342-0.107,1.068,1.068,0,0,0,.3-0.244q0.352-.332.684-0.664l0.664-.664L5,17.887q0.332-.332.645-0.664,0.1-.078.166-0.127a0.225,0.225,0,0,1,.127-0.049,0.317,0.317,0,0,1,.137.039,0.736,0.736,0,0,1,.176.137q0.312,0.332.635,0.664t0.654,0.664q0.312,0.313.645,0.635T8.852,19.84a1.8,1.8,0,0,0,.166.146,1.234,1.234,0,0,0,.205.127,0.814,0.814,0,0,0,.205.088,2.3,2.3,0,0,0,.225.049,1,1,0,0,0,.391-0.039,1.116,1.116,0,0,0,.352-0.176,1.173,1.173,0,0,0,.313-0.254,1.676,1.676,0,0,0,.234-0.351,1.459,1.459,0,0,0,.107-0.352,0.81,0.81,0,0,0-.01-0.332,0.954,0.954,0,0,0-.107-0.342,1.069,1.069,0,0,0-.244-0.3q-0.43-.449-0.869-0.879t-0.869-.859q-0.43-.429-0.859-0.869t-0.879-.869a0.624,0.624,0,0,0-.059-0.049,0.188,0.188,0,0,1-.059-0.068L7.016,14.43l-0.078-.078q0.332-.039.654-0.088t0.635-.127q0.312-.059.615-0.146t0.6-.205a6.355,6.355,0,0,0,.605-0.264,6.025,6.025,0,0,0,1.094-.7,6.226,6.226,0,0,0,.488-0.44,1.11,1.11,0,0,0,.234-0.332,0.863,0.863,0,0,0,.078-0.352A1,1,0,0,0,11.9,11.3a1.5,1.5,0,0,0-.43-0.693,0.852,0.852,0,0,0-.312-0.185,1.023,1.023,0,0,0-.361-0.088,1.533,1.533,0,0,0-.381.029l-0.2.078q-0.1.039-.176,0.078c-0.065.039-.127,0.078-0.186,0.117s-0.114.078-.166,0.117a6.753,6.753,0,0,1-1.816.83,6.577,6.577,0,0,1-1.973.264,6.669,6.669,0,0,1-1.943-.293,6.365,6.365,0,0,1-1.807-.879c-0.026-.013-0.056-0.026-0.088-0.039S2,10.615,1.977,10.6A0.314,0.314,0,0,0,1.9,10.543L1.82,10.5a1.449,1.449,0,0,0-.459-0.146,1.42,1.42,0,0,0-.439.01,0.951,0.951,0,0,0-.371.166,1.178,1.178,0,0,0-.293.3,1.8,1.8,0,0,0-.225.449,1.076,1.076,0,0,0-.049.43,1.22,1.22,0,0,0,.117.42,1.311,1.311,0,0,0,.313.4,1,1,0,0,0,.088.078,1.41,1.41,0,0,1,.107.1l0.117,0.078,0.117,0.078a6.022,6.022,0,0,0,.938.605A6.964,6.964,0,0,0,2.8,13.9a7.688,7.688,0,0,0,1.064.283Q4.418,14.293,5,14.352H5Zm0.957-3.984a4.982,4.982,0,0,0,1.973-.391A5.439,5.439,0,0,0,9.555,8.922,5.334,5.334,0,0,0,10.648,7.33a4.712,4.712,0,0,0,.41-1.963,5.058,5.058,0,0,0-.391-1.982A5.233,5.233,0,0,0,9.594,1.754,4.779,4.779,0,0,0,8.012.65,4.884,4.884,0,0,0,6.039.25a4.952,4.952,0,0,0-1.982.4A5.126,5.126,0,0,0,2.445,1.734a5.3,5.3,0,0,0-1.094,1.6,4.781,4.781,0,0,0-.41,1.973,4.931,4.931,0,0,0,.391,1.953A5.248,5.248,0,0,0,2.406,8.883a5.146,5.146,0,0,0,1.6,1.084,4.83,4.83,0,0,0,1.953.4h0Zm2.5-5.059a2.535,2.535,0,0,1-.186.977,2.375,2.375,0,0,1-.518.781,2.5,2.5,0,0,1-.781.527,2.327,2.327,0,0,1-.937.2A2.529,2.529,0,0,1,5.063,7.6a2.6,2.6,0,0,1-.8-0.518A2.5,2.5,0,0,1,3.734,6.3a2.371,2.371,0,0,1-.2-0.957,2.21,2.21,0,0,1,.176-0.977,2.752,2.752,0,0,1,.527-0.8,2.477,2.477,0,0,1,.791-0.527,2.491,2.491,0,0,1,1.934,0,2.484,2.484,0,0,1,.791.527,2.381,2.381,0,0,1,.518.781,2.485,2.485,0,0,1,.186.957h0Z"/>
</svg>
