<svg xmlns="http://www.w3.org/2000/svg" width="18" height="21" viewBox="0 0 18 21">
  <path file-rule="evenodd" d="M14.566,13.59a3.194,3.194,0,0,1,1.289.264,3.4,3.4,0,0,1,1.055.713,3.266,3.266,0,0,1,.732,1.045,3.691,3.691,0,0,1,.3,1.3,3.262,3.262,0,0,1-.264,1.3,3.2,3.2,0,0,1-.732,1.064,3.4,3.4,0,0,1-1.055.713,3.241,3.241,0,0,1-1.309.264,3.191,3.191,0,0,1-1.289-.264,3.639,3.639,0,0,1-1.074-.713,3.352,3.352,0,0,1-.713-1.064,3.262,3.262,0,0,1-.264-1.3,0.812,0.812,0,0,1,.01-0.137,0.853,0.853,0,0,0,.01-0.137,0.76,0.76,0,0,0,.029-0.127,0.918,0.918,0,0,0,.01-0.127L5.5,12.906a5.241,5.241,0,0,1-.449.293,2.193,2.193,0,0,1-.508.215,2.406,2.406,0,0,1-.527.137,3.842,3.842,0,0,1-.547.039,3.24,3.24,0,0,1-1.309-.264A3.327,3.327,0,0,1,.4,11.549a3.262,3.262,0,0,1-.264-1.3,3.37,3.37,0,0,1,.254-1.3,3.225,3.225,0,0,1,.7-1.064,3.388,3.388,0,0,1,1.055-.713A3.192,3.192,0,0,1,3.434,6.91,3.239,3.239,0,0,1,4,6.959a4.526,4.526,0,0,1,.527.127,4.222,4.222,0,0,1,.488.225,4.074,4.074,0,0,1,.449.283l5.82-3.477A0.739,0.739,0,0,1,11.256,4a0.809,0.809,0,0,1-.01-0.137,0.4,0.4,0,0,1-.02-0.127V3.59a3.264,3.264,0,0,1,.264-1.3A3.327,3.327,0,0,1,13.258.514,3.241,3.241,0,0,1,14.566.25a3.2,3.2,0,0,1,1.289.264,3.4,3.4,0,0,1,1.055.713,3.362,3.362,0,0,1,.713,1.064,3.526,3.526,0,0,1,.283,1.3A3.241,3.241,0,0,1,17.643,4.9a3.327,3.327,0,0,1-1.777,1.768,3.263,3.263,0,0,1-1.3.264A3.971,3.971,0,0,1,14,6.891a2.391,2.391,0,0,1-.527-0.137,2.64,2.64,0,0,1-.488-0.205,2.845,2.845,0,0,1-.449-0.3L6.715,9.723a0.821,0.821,0,0,1,.029.117,0.855,0.855,0,0,1,.01.137,0.405,0.405,0,0,1,.02.127v0.274a0.4,0.4,0,0,1-.02.127,1.137,1.137,0,0,1-.01.137,0.744,0.744,0,0,1-.029.137l5.82,3.5a4.056,4.056,0,0,1,.449-0.283,4.2,4.2,0,0,1,.488-0.225A4.476,4.476,0,0,1,14,13.639a3.231,3.231,0,0,1,.566-0.049h0Z"/>
</svg>
