<svg xmlns="http://www.w3.org/2000/svg" width="20" height="17" viewBox="0 0 20 17">
  <path file-rule="evenodd" d="M20,2.059a5.24,5.24,0,0,1-.479.693Q19.258,3.074,19,3.328a4.9,4.9,0,0,1-.508.479,5.189,5.189,0,0,1-.469.342V4.3A11.525,11.525,0,0,1,17.266,9a11.663,11.663,0,0,1-2.422,3.838,11.484,11.484,0,0,1-8.379,3.535,12.64,12.64,0,0,1-1.729-.117,12.067,12.067,0,0,1-1.67-.352,11.718,11.718,0,0,1-1.582-.576A14.5,14.5,0,0,1,0,14.559a6.228,6.228,0,0,0,1.992.029,7.9,7.9,0,0,0,1.68-.439,6.4,6.4,0,0,0,1.27-.654,4.16,4.16,0,0,0,.781-0.654,3.525,3.525,0,0,1-1.348-.264A4.578,4.578,0,0,1,3.223,11.9a4.332,4.332,0,0,1-.83-0.918,2.052,2.052,0,0,1-.361-0.957q0.136,0.02.352,0.039t0.469,0.02a2.829,2.829,0,0,0,.469-0.039A1.5,1.5,0,0,0,3.75,9.91a4.45,4.45,0,0,1-1.572-.723,4.381,4.381,0,0,1-.986-1.016,4.015,4.015,0,0,1-.5-1.162A4.152,4.152,0,0,1,.566,5.867a1.211,1.211,0,0,0,.381.254,2.72,2.72,0,0,0,.479.156,4.362,4.362,0,0,0,.5.049,2.8,2.8,0,0,0,.42-0.01A3.656,3.656,0,0,1,1.377,5.4,4.08,4.08,0,0,1,.723,4.07,4.333,4.333,0,0,1,.566,2.518,3.858,3.858,0,0,1,1.094.867,9.426,9.426,0,0,0,2.881,2.645a11.944,11.944,0,0,0,2.2,1.328,12.506,12.506,0,0,0,2.383.85,11.6,11.6,0,0,0,2.383.342Q9.824,5.047,9.8,4.939C9.792,4.868,9.778,4.793,9.766,4.715s0-.156-0.01-0.234-0.01-.156-0.01-0.234a4.047,4.047,0,0,1,.322-1.611,3.941,3.941,0,0,1,.889-1.3A4.166,4.166,0,0,1,12.275.447,4,4,0,0,1,13.867.125a4.233,4.233,0,0,1,.869.088,3.532,3.532,0,0,1,.791.264,4.032,4.032,0,0,1,.713.391,5.447,5.447,0,0,1,.635.508,2.441,2.441,0,0,0,.6-0.088,7.388,7.388,0,0,0,.713-0.225q0.352-.136.693-0.293A4.693,4.693,0,0,0,19.434.477a2.609,2.609,0,0,1-.273.654,4.876,4.876,0,0,1-.449.654,4.663,4.663,0,0,1-.5.566,2.087,2.087,0,0,1-.5.371,6.55,6.55,0,0,0,.7-0.117q0.351-.078.664-0.176t0.547-.2A3.406,3.406,0,0,0,20,2.059h0Z"/>
</svg>
