<svg xmlns="http://www.w3.org/2000/svg" width="20" height="12" viewBox="0 0 20 12">
  <path file-rule="evenodd" d="M9.785,11.914a5.914,5.914,0,0,1-1.6-.234A7.256,7.256,0,0,1,6.582,11,7.039,7.039,0,0,1,4.844,9.57,15.032,15.032,0,0,1,3.027,7.227Q2.168,5.879,1.5,4.648T0.059,1.68A0.343,0.343,0,0,1,.02,1.523,0.46,0.46,0,0,1,.01,1.357,0.483,0.483,0,0,1,.059,1.191,0.376,0.376,0,0,1,.215,1.045,0.785,0.785,0,0,1,.41.977H3.5A0.44,0.44,0,0,1,3.633,1a0.782,0.782,0,0,1,.156.059c0.052,0.026.11,0.059,0.176,0.1q0.059,0.059.107,0.117c0.032,0.039.062,0.072,0.088,0.1a1,1,0,0,0,.059.137q0.156,0.391.293,0.7T4.844,2.92q0.2,0.4.43,0.791,0.449,0.781.791,1.27a5.666,5.666,0,0,0,.6.742,1.077,1.077,0,0,0,.439.3A0.471,0.471,0,0,0,7.441,6,0.827,0.827,0,0,0,7.754,5.41a5.911,5.911,0,0,0,.117-0.977q0.019-.527-0.02-1.348-0.02-.312-0.039-0.527-0.039-.215-0.1-0.449a1.082,1.082,0,0,0-.176-0.391,1.015,1.015,0,0,0-.215-0.2A2.218,2.218,0,0,0,7.09,1.387Q6.953,1.348,6.836,1.318A0.8,0.8,0,0,0,6.66,1.289,0.071,0.071,0,0,1,6.611,1.2,0.328,0.328,0,0,1,6.68,1.055,1.239,1.239,0,0,1,6.865.869,1.2,1.2,0,0,1,7.09.723,1.73,1.73,0,0,1,7.559.576,5.239,5.239,0,0,1,8.145.508,5.549,5.549,0,0,1,8.828.469H9.59q0.312,0,.527.01t0.371,0.01a2.359,2.359,0,0,1,.273.049C10.84,0.557,10.918.573,11,.586a0.89,0.89,0,0,1,.527.322,1.207,1.207,0,0,1,.176.635,6.44,6.44,0,0,1,0,1.006q-0.039.6-.039,1.416,0,0.274-.01.576a5.471,5.471,0,0,0,.01.576,2.1,2.1,0,0,0,.1.527A0.622,0.622,0,0,0,12.031,6a0.3,0.3,0,0,0,.225.039,0.88,0.88,0,0,0,.4-0.254,4.17,4.17,0,0,0,.605-0.693q0.352-.478.859-1.338a7.624,7.624,0,0,0,.459-0.811q0.205-.42.361-0.752,0.136-.352.313-0.781l0.059-.117A0.691,0.691,0,0,1,15.4,1.182a0.718,0.718,0,0,1,.107-0.088,0.306,0.306,0,0,1,.117-0.049,0.723,0.723,0,0,1,.117-0.01,0.247,0.247,0,0,1,.137,0h2.988a3.313,3.313,0,0,1,.508,0,1.287,1.287,0,0,1,.361.088,0.328,0.328,0,0,1,.205.186,0.962,0.962,0,0,1-.029.439,4.305,4.305,0,0,1-.244.654q-0.2.371-.518,0.869t-0.771,1.1Q17.617,5.391,17.2,5.918a2.116,2.116,0,0,0-.478.879,0.752,0.752,0,0,0,.2.674,12.225,12.225,0,0,0,.9.908q0.605,0.567.986,0.977a8.283,8.283,0,0,1,.6.7q0.215,0.293.3,0.439T19.8,10.684a0.892,0.892,0,0,1,.166.644,0.705,0.705,0,0,1-.244.371,1.165,1.165,0,0,1-.381.166,1.467,1.467,0,0,1-.283.049H16.406a2.181,2.181,0,0,1-.43-0.039,1.98,1.98,0,0,1-.43-0.1,1.941,1.941,0,0,1-.488-0.254,3.683,3.683,0,0,1-.752-0.664q-0.361-.41-0.713-0.8a5.121,5.121,0,0,0-.645-0.615,0.624,0.624,0,0,0-.566-0.166,0.738,0.738,0,0,0-.439.4,2.443,2.443,0,0,0-.205.615,6.348,6.348,0,0,0-.078.84,1.008,1.008,0,0,1-.02.2c-0.013.052-.029,0.107-0.049,0.166a0.579,0.579,0,0,1-.088.166,0.567,0.567,0,0,1-.166.146,0.679,0.679,0,0,1-.166.068l-0.2.039H9.785Z"/>
</svg>
